<svg xmlns="http://www.w3.org/2000/svg" xmlns:xlink="http://www.w3.org/1999/xlink" xmlns:serif="http://www.serif.com/" viewBox="0 0 96 120" version="1.1" xml:space="preserve" style="" x="0px" y="0px" fill-rule="evenodd" clip-rule="evenodd" stroke-linejoin="round" stroke-miterlimit="2"><rect serif:id="drag and drop" x="0" y="0" width="96" height="96" style="" fill="none"/><path d="M47.657,27.3l0,-3c0,-0.827 -0.672,-1.5 -1.5,-1.5c-0.828,0 -1.5,0.673 -1.5,1.5l0,3c0,0.828 0.672,1.5 1.5,1.5c0.828,0 1.5,-0.672 1.5,-1.5Zm0,-9l0,-2.999c0,-0.828 -0.672,-1.5 -1.5,-1.5c-0.828,-0 -1.5,0.672 -1.5,1.5l0,2.999c0,0.828 0.672,1.5 1.5,1.5c0.828,0 1.5,-0.672 1.5,-1.5Zm-35.903,-5.825c0,0.882 0,2.029 0,3c0,0.828 0.673,1.5 1.5,1.5c0.828,0 1.5,-0.672 1.5,-1.5c0,-0.971 0,-2.118 0,-3c0,-0.828 -0.672,-1.5 -1.5,-1.5c-0.827,0 -1.5,0.672 -1.5,1.5Zm35.157,-3.905c-0.805,-1.216 -2.186,-2.018 -3.754,-2.018l-0.038,0c-0.828,0 -1.5,0.672 -1.5,1.5c-0,0.828 0.672,1.5 1.5,1.5l0.038,0c0.524,0 0.984,0.268 1.253,0.674c0.457,0.691 1.388,0.88 2.079,0.423c0.69,-0.457 0.879,-1.388 0.422,-2.079Zm-27.793,-2.018l-2.864,0c-0.067,0 -0.135,0.002 -0.202,0.005c-0.827,0.037 -1.469,0.738 -1.432,1.565c0.037,0.827 0.738,1.469 1.565,1.432c0.023,-0.001 0.046,-0.002 0.069,-0.002c0.001,0 2.864,0 2.864,0c0.828,0 1.5,-0.672 1.5,-1.5c0,-0.828 -0.672,-1.5 -1.5,-1.5Zm9.001,0c-1.014,0 -2.019,0 -3.001,0c-0.827,0 -1.5,0.672 -1.5,1.5c0,0.828 0.673,1.5 1.5,1.5c0.982,0 1.987,0 3.001,0c0.827,0 1.5,-0.672 1.5,-1.5c-0,-0.828 -0.673,-1.5 -1.5,-1.5Zm9,0c-0.964,0 -1.97,0 -3.001,0c-0.827,0 -1.5,0.672 -1.5,1.5c0,0.828 0.673,1.5 1.5,1.5c1.031,0 2.037,0 3.001,0c0.827,0 1.5,-0.672 1.5,-1.5c-0,-0.828 -0.673,-1.5 -1.5,-1.5Z"/><path d="M36.838,29.119l-0,-8.613c-0,-2.508 -2.034,-4.542 -4.543,-4.542l-26.818,-0c-2.508,-0 -4.542,2.034 -4.542,4.542c0,7.355 0,26.033 0,33.387c0,2.509 2.034,4.543 4.542,4.543l26.818,-0c0.828,-0 1.5,-0.673 1.5,-1.5c0,-0.828 -0.672,-1.5 -1.5,-1.5l-26.817,-0c-0.852,-0 -1.543,-0.691 -1.543,-1.543c0,-7.354 0,-26.032 0,-33.387c0,-0.852 0.691,-1.542 1.542,-1.542c0.001,-0 26.818,-0 26.818,-0c0.852,-0 1.543,0.69 1.543,1.542l-0,8.613c-0,0.828 0.672,1.5 1.5,1.5c0.828,0 1.5,-0.672 1.5,-1.5Z"/><path d="M32.9,70.436c0.134,-0.263 0.37,-0.688 0.661,-1.057c1.852,-2.349 4.464,-3.26 7.092,-3.479c0.825,-0.07 1.438,-0.795 1.369,-1.62c-0.069,-0.825 -0.795,-1.439 -1.62,-1.37c-3.422,0.286 -6.784,1.552 -9.197,4.612c-1.467,1.861 -1.582,3.217 -1.264,4.058c0.354,0.934 1.385,1.681 3.075,1.959c1.538,0.253 3.769,0.227 6.034,0.395c1.959,0.145 3.959,0.414 5.405,1.326c4.779,3.014 8.477,6.554 19.094,7.517c5.064,0.459 9.456,3.978 11.852,6.258c0.6,0.57 1.55,0.546 2.121,-0.053c0.57,-0.6 0.547,-1.55 -0.053,-2.121c-2.749,-2.615 -7.84,-6.545 -13.649,-7.072c-9.892,-0.897 -13.312,-4.258 -17.765,-7.067c-2.915,-1.838 -7.635,-1.785 -10.999,-1.989c-0.7,-0.042 -1.329,-0.099 -1.844,-0.209c-0.099,-0.021 -0.212,-0.055 -0.312,-0.088Zm61.708,-0.759c-2.943,-2.847 -8.078,-8.286 -8.956,-12.672c-1.716,-8.573 -8.601,-14.901 -8.601,-14.901c-0.61,-0.56 -1.56,-0.518 -2.12,0.092c-0.559,0.61 -0.518,1.559 0.092,2.119c-0,0 6.157,5.633 7.687,13.279c0.978,4.888 6.532,11.067 9.812,14.239c0.595,0.576 1.546,0.56 2.121,-0.035c0.576,-0.595 0.56,-1.546 -0.035,-2.121Z"/><path d="M59.396,60.246l-27.577,-27.578c-2.232,-2.232 -5.857,-2.232 -8.09,0c-2.232,2.233 -2.232,5.858 0,8.09c0,-0 27.578,27.577 27.578,27.577c0.585,0.585 1.535,0.585 2.121,0c0.585,-0.585 0.585,-1.536 -0,-2.121l-27.577,-27.577c-1.062,-1.062 -1.062,-2.786 -0,-3.847c1.061,-1.062 2.785,-1.062 3.847,-0c-0,-0 27.577,27.577 27.577,27.577c0.585,0.585 1.536,0.585 2.121,-0c0.585,-0.586 0.585,-1.536 0,-2.121Z"/><path d="M65.364,54.277l-16.573,-16.572c-2.232,-2.233 -5.857,-2.233 -8.089,-0c-0.585,0.585 -0.585,1.535 -0,2.121c0.585,0.585 1.536,0.585 2.121,-0c1.062,-1.062 2.786,-1.062 3.847,-0c0,-0 16.573,16.573 16.573,16.573c0.585,0.585 1.536,0.585 2.121,-0c0.586,-0.586 0.586,-1.536 0,-2.122Z"/><path d="M71.332,48.309l-12.382,-12.382c-2.233,-2.233 -5.857,-2.233 -8.09,-0c-0.585,0.585 -0.585,1.535 0,2.121c0.586,0.585 1.536,0.585 2.122,-0c1.061,-1.062 2.785,-1.062 3.846,-0c0,-0 12.383,12.382 12.383,12.382c0.586,0.586 1.536,0.586 2.121,0c0.586,-0.585 0.586,-1.535 0,-2.121Z"/><path d="M77.266,42.386l-8.591,-8.671c-2.233,-2.232 -5.857,-2.232 -8.09,0c-0.585,0.585 -0.585,1.536 0,2.121c0.586,0.586 1.536,0.586 2.122,0c1.061,-1.061 2.784,-1.061 3.845,-0.001c0,0 8.583,8.662 8.583,8.662c0.582,0.588 1.533,0.593 2.121,0.01c0.588,-0.583 0.592,-1.533 0.01,-2.121Z"/><text x="0" y="111" fill="#000000" font-size="5px" font-weight="bold" font-family="'Helvetica Neue', Helvetica, Arial-Unicode, Arial, Sans-serif">Created by Jackvisual assets</text><text x="0" y="116" fill="#000000" font-size="5px" font-weight="bold" font-family="'Helvetica Neue', Helvetica, Arial-Unicode, Arial, Sans-serif">from the Noun Project</text></svg>